<?xml version="1.0" encoding="UTF-8"?>
<svg width="100" height="40" viewBox="0 0 100 40" fill="none" xmlns="http://www.w3.org/2000/svg">
  <path d="M20.6924 10.0001C29.9767 10.0001 37.3846 17.1634 37.3846 26.0001C37.3846 34.8367 29.9767 42.0001 20.6924 42.0001C11.4081 42.0001 4.00012 34.8367 4.00012 26.0001C4.00012 17.1634 11.4081 10.0001 20.6924 10.0001Z" fill="#1A2835"/>
  <path d="M63.0769 14.3335V36.6668H58.7692V32.5002C57.2821 35.2502 54.359 37.0002 50.5897 37.0002C44.4103 37.0002 39.6154 32.3335 39.6154 25.5002C39.6154 18.6668 44.4103 14.0002 50.5897 14.0002C54.359 14.0002 57.2821 15.7502 58.7692 18.5002V14.3335H63.0769ZM51.1795 32.8335C55.0256 32.8335 58.359 29.8335 58.359 25.5002C58.359 21.1668 55.0256 18.1668 51.1795 18.1668C47.3333 18.1668 44 21.1668 44 25.5002C44 29.8335 47.3333 32.8335 51.1795 32.8335Z" fill="#1A2835"/>
  <path d="M71.2308 11.8335C69.4872 11.8335 68.0769 10.5002 68.0769 8.83349C68.0769 7.16683 69.4872 5.83349 71.2308 5.83349C72.9744 5.83349 74.3846 7.16683 74.3846 8.83349C74.3846 10.5002 72.9744 11.8335 71.2308 11.8335ZM68.5898 36.6668V14.3335H73.8718V36.6668H68.5898Z" fill="#1A2835"/>
  <path d="M96 36.6668V14.3335H91.6923V18.5002C90.2051 15.7502 87.2821 14.0002 83.5128 14.0002C77.3333 14.0002 72.5385 18.6668 72.5385 25.5002C72.5385 32.3335 77.3333 37.0002 83.5128 37.0002C87.2821 37.0002 90.2051 35.2502 91.6923 32.5002V36.6668H96ZM84.1026 18.1668C87.9487 18.1668 91.2821 21.1668 91.2821 25.5002C91.2821 29.8335 87.9487 32.8335 84.1026 32.8335C80.2564 32.8335 76.9231 29.8335 76.9231 25.5002C76.9231 21.1668 80.2564 18.1668 84.1026 18.1668Z" fill="#1A2835"/>
</svg>
